
<svg width="63" height="45" viewBox="0 0 63 45" fill="none" xmlns="http://www.w3.org/2000/svg">
<rect width="63" height="45" fill="#E5E5E5"/>
<rect x="-176" y="-420" width="1440" height="745" fill="white"/>
<rect x="0.5" y="0.5" width="62" height="44" fill="#1D1F22" stroke="#1D1F22"/>
<path d="M26.6275 27V16.504H28.2275L30.2435 22.104C30.3715 22.4667 30.4942 22.8347 30.6115 23.208C30.7395 23.5707 30.8675 23.9333 30.9955 24.296H31.0595C31.1875 23.9333 31.3048 23.5707 31.4115 23.208C31.5288 22.8347 31.6515 22.4667 31.7795 22.104L33.7635 16.504H35.3795V27H34.1315V21.224C34.1315 20.7547 34.1528 20.2373 34.1955 19.672C34.2382 19.1067 34.2755 18.5893 34.3075 18.12H34.2435L33.4115 20.504L31.4275 25.944H30.5475L28.5635 20.504L27.7315 18.12H27.6675C27.6995 18.5893 27.7315 19.1067 27.7635 19.672C27.8062 20.2373 27.8275 20.7547 27.8275 21.224V27H26.6275Z" fill="white"/>
</svg>
