
<svg width="63" height="45" viewBox="0 0 63 45" fill="none" xmlns="http://www.w3.org/2000/svg">
<rect width="63" height="45" fill="#E5E5E5"/>
<rect x="-1004" y="-299" width="1440" height="745" fill="white"/>
<rect x="0.5" y="0.5" width="62" height="44" fill="#1D1F22" stroke="#1D1F22"/>
<path d="M31.5786 28.192C30.8426 28.192 30.1599 28.0533 29.5306 27.776C28.9012 27.4987 28.3572 27.12 27.8986 26.64L28.6986 25.712C29.0719 26.1067 29.5092 26.4267 30.0106 26.672C30.5226 26.9067 31.0506 27.024 31.5946 27.024C32.2879 27.024 32.8266 26.8693 33.2106 26.56C33.5946 26.24 33.7866 25.824 33.7866 25.312C33.7866 25.0453 33.7386 24.8213 33.6426 24.64C33.5572 24.448 33.4346 24.288 33.2746 24.16C33.1252 24.0213 32.9439 23.8987 32.7306 23.792C32.5172 23.6853 32.2879 23.5733 32.0426 23.456L30.5386 22.8C30.2932 22.6933 30.0426 22.5653 29.7866 22.416C29.5306 22.2667 29.3012 22.0853 29.0986 21.872C28.8959 21.6587 28.7306 21.408 28.6026 21.12C28.4746 20.8213 28.4106 20.48 28.4106 20.096C28.4106 19.7013 28.4906 19.3333 28.6506 18.992C28.8212 18.6507 29.0506 18.3573 29.3386 18.112C29.6372 17.856 29.9839 17.6587 30.3786 17.52C30.7839 17.3813 31.2266 17.312 31.7066 17.312C32.3359 17.312 32.9172 17.4347 33.4506 17.68C33.9839 17.9147 34.4372 18.224 34.8106 18.608L34.0906 19.472C33.7706 19.1627 33.4132 18.9227 33.0186 18.752C32.6346 18.5707 32.1972 18.48 31.7066 18.48C31.1199 18.48 30.6452 18.6187 30.2826 18.896C29.9306 19.1627 29.7546 19.536 29.7546 20.016C29.7546 20.272 29.8026 20.4907 29.8986 20.672C30.0052 20.8427 30.1439 20.9973 30.3146 21.136C30.4852 21.264 30.6719 21.3813 30.8746 21.488C31.0772 21.584 31.2852 21.6747 31.4986 21.76L32.9866 22.4C33.2852 22.528 33.5679 22.6773 33.8346 22.848C34.1012 23.008 34.3306 23.2 34.5226 23.424C34.7146 23.6373 34.8639 23.8933 34.9706 24.192C35.0879 24.48 35.1466 24.816 35.1466 25.2C35.1466 25.616 35.0612 26.0053 34.8906 26.368C34.7306 26.7307 34.4959 27.0507 34.1866 27.328C33.8772 27.5947 33.5039 27.808 33.0666 27.968C32.6292 28.1173 32.1332 28.192 31.5786 28.192Z" fill="white"/>
</svg>
