
<svg width="63" height="45" viewBox="0 0 63 45" fill="none" xmlns="http://www.w3.org/2000/svg">
<rect width="63" height="45" fill="#E5E5E5"/>
<rect x="-1079" y="-299" width="1440" height="745" fill="white"/>
<path d="M28.6275 28V17.504H30.2275L32.2435 23.104C32.3715 23.4667 32.4942 23.8347 32.6115 24.208C32.7395 24.5707 32.8675 24.9333 32.9955 25.296H33.0595C33.1875 24.9333 33.3048 24.5707 33.4115 24.208C33.5288 23.8347 33.6515 23.4667 33.7795 23.104L35.7635 17.504H37.3795V28H36.1315V22.224C36.1315 21.7547 36.1528 21.2373 36.1955 20.672C36.2382 20.1067 36.2755 19.5893 36.3075 19.12H36.2435L35.4115 21.504L33.4275 26.944H32.5475L30.5635 21.504L29.7315 19.12H29.6675C29.6995 19.5893 29.7315 20.1067 29.7635 20.672C29.8062 21.2373 29.8275 21.7547 29.8275 22.224V28H28.6275Z" fill="#292929"/>
<rect x="0.5" y="0.5" width="62" height="44" stroke="#1D1F22"/>
</svg>
