
<svg width="63" height="45" viewBox="0 0 63 45" fill="none" xmlns="http://www.w3.org/2000/svg">
<rect width="63" height="45" fill="#E5E5E5"/>
<rect x="-929" y="-299" width="1440" height="745" fill="white"/>
<path d="M23.5744 28L26.6304 22.576L23.7824 17.504H25.2544L26.6784 20.192C26.817 20.4373 26.945 20.6773 27.0624 20.912C27.1904 21.136 27.3344 21.4027 27.4944 21.712H27.5584C27.7077 21.4027 27.8357 21.136 27.9424 20.912C28.0597 20.6773 28.1824 20.4373 28.3104 20.192L29.7024 17.504H31.1104L28.2464 22.64L31.3024 28H29.8304L28.2944 25.168C28.1557 24.912 28.0117 24.6507 27.8624 24.384C27.7237 24.1067 27.569 23.808 27.3984 23.488H27.3344C27.185 23.808 27.041 24.1067 26.9024 24.384C26.7637 24.6507 26.6304 24.912 26.5024 25.168L24.9824 28H23.5744ZM36.4708 28.192C35.7348 28.192 35.0521 28.0533 34.4228 27.776C33.7934 27.4987 33.2494 27.12 32.7908 26.64L33.5908 25.712C33.9641 26.1067 34.4014 26.4267 34.9028 26.672C35.4148 26.9067 35.9428 27.024 36.4868 27.024C37.1801 27.024 37.7188 26.8693 38.1028 26.56C38.4868 26.24 38.6788 25.824 38.6788 25.312C38.6788 25.0453 38.6308 24.8213 38.5348 24.64C38.4494 24.448 38.3268 24.288 38.1668 24.16C38.0174 24.0213 37.8361 23.8987 37.6228 23.792C37.4094 23.6853 37.1801 23.5733 36.9348 23.456L35.4308 22.8C35.1854 22.6933 34.9348 22.5653 34.6788 22.416C34.4228 22.2667 34.1934 22.0853 33.9908 21.872C33.7881 21.6587 33.6228 21.408 33.4948 21.12C33.3668 20.8213 33.3028 20.48 33.3028 20.096C33.3028 19.7013 33.3828 19.3333 33.5428 18.992C33.7134 18.6507 33.9428 18.3573 34.2308 18.112C34.5294 17.856 34.8761 17.6587 35.2708 17.52C35.6761 17.3813 36.1188 17.312 36.5988 17.312C37.2281 17.312 37.8094 17.4347 38.3428 17.68C38.8761 17.9147 39.3294 18.224 39.7028 18.608L38.9828 19.472C38.6628 19.1627 38.3054 18.9227 37.9108 18.752C37.5268 18.5707 37.0894 18.48 36.5988 18.48C36.0121 18.48 35.5374 18.6187 35.1748 18.896C34.8228 19.1627 34.6468 19.536 34.6468 20.016C34.6468 20.272 34.6948 20.4907 34.7908 20.672C34.8974 20.8427 35.0361 20.9973 35.2068 21.136C35.3774 21.264 35.5641 21.3813 35.7668 21.488C35.9694 21.584 36.1774 21.6747 36.3908 21.76L37.8788 22.4C38.1774 22.528 38.4601 22.6773 38.7268 22.848C38.9934 23.008 39.2228 23.2 39.4148 23.424C39.6068 23.6373 39.7561 23.8933 39.8628 24.192C39.9801 24.48 40.0388 24.816 40.0388 25.2C40.0388 25.616 39.9534 26.0053 39.7828 26.368C39.6228 26.7307 39.3881 27.0507 39.0788 27.328C38.7694 27.5947 38.3961 27.808 37.9588 27.968C37.5214 28.1173 37.0254 28.192 36.4708 28.192Z" fill="#A6A6A6"/>
<rect x="0.5" y="0.5" width="62" height="44" stroke="#A6A6A6"/>
</svg>
