
<svg width="63" height="45" viewBox="0 0 63 45" fill="none" xmlns="http://www.w3.org/2000/svg">
<rect width="63" height="45" fill="#E5E5E5"/>
<rect x="-101" y="-420" width="1440" height="745" fill="white"/>
<rect x="0.5" y="0.5" width="62" height="44" stroke="#1D1F22"/>
<path d="M32.5786 27.192C31.8426 27.192 31.1599 27.0533 30.5306 26.776C29.9012 26.4987 29.3572 26.12 28.8986 25.64L29.6986 24.712C30.0719 25.1067 30.5092 25.4267 31.0106 25.672C31.5226 25.9067 32.0506 26.024 32.5946 26.024C33.2879 26.024 33.8266 25.8693 34.2106 25.56C34.5946 25.24 34.7866 24.824 34.7866 24.312C34.7866 24.0453 34.7386 23.8213 34.6426 23.64C34.5572 23.448 34.4346 23.288 34.2746 23.16C34.1252 23.0213 33.9439 22.8987 33.7306 22.792C33.5172 22.6853 33.2879 22.5733 33.0426 22.456L31.5386 21.8C31.2932 21.6933 31.0426 21.5653 30.7866 21.416C30.5306 21.2667 30.3012 21.0853 30.0986 20.872C29.8959 20.6587 29.7306 20.408 29.6026 20.12C29.4746 19.8213 29.4106 19.48 29.4106 19.096C29.4106 18.7013 29.4906 18.3333 29.6506 17.992C29.8212 17.6507 30.0506 17.3573 30.3386 17.112C30.6372 16.856 30.9839 16.6587 31.3786 16.52C31.7839 16.3813 32.2266 16.312 32.7066 16.312C33.3359 16.312 33.9172 16.4347 34.4506 16.68C34.9839 16.9147 35.4372 17.224 35.8106 17.608L35.0906 18.472C34.7706 18.1627 34.4132 17.9227 34.0186 17.752C33.6346 17.5707 33.1972 17.48 32.7066 17.48C32.1199 17.48 31.6452 17.6187 31.2826 17.896C30.9306 18.1627 30.7546 18.536 30.7546 19.016C30.7546 19.272 30.8026 19.4907 30.8986 19.672C31.0052 19.8427 31.1439 19.9973 31.3146 20.136C31.4852 20.264 31.6719 20.3813 31.8746 20.488C32.0772 20.584 32.2852 20.6747 32.4986 20.76L33.9866 21.4C34.2852 21.528 34.5679 21.6773 34.8346 21.848C35.1012 22.008 35.3306 22.2 35.5226 22.424C35.7146 22.6373 35.8639 22.8933 35.9706 23.192C36.0879 23.48 36.1466 23.816 36.1466 24.2C36.1466 24.616 36.0612 25.0053 35.8906 25.368C35.7306 25.7307 35.4959 26.0507 35.1866 26.328C34.8772 26.5947 34.5039 26.808 34.0666 26.968C33.6292 27.1173 33.1332 27.192 32.5786 27.192Z" fill="#1D1F22"/>
</svg>
